HIERARCHY
ROOT Hips
{
  OFFSET 0 0 0
  CHANNELS 6 Xposition Yposition Zposition Zrotation Yrotation Xrotation
  JOINT LeftThigh
  {
    OFFSET 8.409438 0 -5.917753
    CHANNELS 3 Zrotation Yrotation Xrotation
    JOINT LeftLeg
    {
      OFFSET 0 0 -42.358652
      CHANNELS 3 Zrotation Yrotation Xrotation
      JOINT LeftFoot
      {
        OFFSET 0 0 -39.357303
        CHANNELS 3 Zrotation Yrotation Xrotation
      }
    }
  }
  JOINT RightThigh
  {
    OFFSET -8.409438 0 -5.917753
    CHANNELS 3 Zrotation Yrotation Xrotation
    JOINT RightLeg
    {
      OFFSET 0 0 -42.358652
      CHANNELS 3 Zrotation Yrotation Xrotation
      JOINT RightFoot
      {
        OFFSET 0 0 -39.357303
        CHANNELS 3 Zrotation Yrotation Xrotation
      }
    }
  }
  JOINT SpineLow
  {
    OFFSET 0 0 4.719101
    CHANNELS 3 Zrotation Yrotation Xrotation
    JOINT SpineMid
    {
      OFFSET 0 0 12.899191
      CHANNELS 3 Zrotation Yrotation Xrotation
      JOINT Chest
      {
        OFFSET 0 0 12.899191
        CHANNELS 3 Zrotation Yrotation Xrotation
        JOINT LeftShoulder
        {
          OFFSET 7.550562 1.41573 9.438202
          CHANNELS 3 Zrotation Yrotation Xrotation
          JOINT LeftArm
          {
            OFFSET 9.155056 0 4.247191
            CHANNELS 3 Zrotation Yrotation Xrotation
            JOINT LeftForearm
            {
              OFFSET 0 0 25.771955
              CHANNELS 3 Zrotation Yrotation Xrotation
              JOINT LeftHand
              {
                OFFSET 0 0 25.197169
                CHANNELS 3 Zrotation Yrotation Xrotation
              }
            }
          }
        }
        JOINT RightShoulder
        {
          OFFSET -7.550562 1.41573 9.438202
          CHANNELS 3 Zrotation Yrotation Xrotation
          JOINT RightArm
          {
            OFFSET -9.155056 0 4.247191
            CHANNELS 3 Zrotation Yrotation Xrotation
            JOINT RightForearm
            {
              OFFSET 0 0 -25.771955
              CHANNELS 3 Zrotation Yrotation Xrotation
              JOINT RightHand
              {
                OFFSET 0 0 -25.197169
                CHANNELS 3 Zrotation Yrotation Xrotation
              }
            }
          }
        }
        JOINT Neck
        {
          OFFSET 0 0 15.101124
          CHANNELS 3 Zrotation Yrotation Xrotation
          JOINT Head
          {
            OFFSET 0 0 11.325843
            CHANNELS 3 Zrotation Yrotation Xrotation
            End Site
            {
              OFFSET 0 0 14.157303
            }
          }
        }
      }
    }
  }
}
MOTION
Frames: 13
Frame Time: 0.0
0.0  101.685394  0.0  -1.476412  -31.632252  -101.315803  17.848649  -17.256753  11.55012  5.132244  2.565511  27.432278  8.265505  5.897341  4.140515  -0.189872  1.343673  -11.113249  5.324419  11.887088  23.804979  22.925998  4.94055  -0.90088  -7.870389  -1.928762  3.065165  -21.74577  -4.207576  8.911849  -21.74577  -4.207576  8.911849  -1.063272  20.072294  2.168835  64.433994  57.159435  92.88748  -18.427902  -27.616992  127.321473  147.204037  -17.7341  -14.64374  17.425619  15.151407  19.051935  89.461095  -2.212143  64.136737  -34.575779  -37.720954  -119.603929  43.340358  41.442242  -6.982562  28.562499  8.016767  -2.650535  21.421949  5.904197  -2.36812  
0.0  101.685394  0.0  -1.463177  -31.832484  -101.359734  18.282288  -17.223621  11.890481  4.599095  2.616342  26.764344  8.576906  5.86534  4.2322  -0.131029  1.429118  -10.958028  5.214308  11.922114  23.41099  23.222993  4.720475  -0.93496  -7.828307  -1.97685  3.101354  -21.640593  -4.331139  9.023715  -21.640591  -4.331139  9.023715  -1.06269  20.273301  2.208807  65.505753  56.543184  94.147535  -18.426925  -27.813938  127.268331  147.34474  -17.797825  -13.841689  18.230296  15.378505  19.50726  90.069666  -1.581345  64.066366  -36.322399  -37.251803  -118.332009  44.173169  41.223425  -6.578373  28.092262  7.976528  -3.060695  21.075549  5.856645  -2.667706  
0.0  101.685394  0.0  -1.452906  -31.909614  -101.311838  19.01787  -17.346718  12.10189  3.498098  2.842248  25.949907  8.914906  5.813403  4.293487  -0.832272  1.421646  -10.815664  5.506516  12.042955  22.909385  23.470612  4.449157  -0.990635  -7.724755  -2.023773  3.144854  -21.367962  -4.458168  9.151448  -21.367961  -4.458168  9.151448  -1.262538  20.3963  2.193841  66.036351  56.185499  94.818843  -18.043915  -27.953789  126.924076  147.614712  -17.481128  -13.227966  18.457034  15.618618  19.590897  90.772164  -1.128449  63.867006  -37.989162  -36.617985  -117.386713  45.194637  40.772353  -5.764116  27.508475  7.959279  -3.524114  20.644731  5.82517  -3.006778  
0.0  101.685394  0.0  -1.425164  -31.707542  -101.197517  19.745519  -17.536906  12.170553  2.381103  3.120008  25.295203  9.227291  5.78141  4.349533  -1.757618  1.38195  -10.64099  6.030314  12.139183  22.42052  23.709154  4.283995  -0.983732  -7.593152  -2.062294  3.181108  -21.017113  -4.569368  9.254891  -21.017114  -4.569368  9.254891  -1.78865  20.366173  2.109885  66.609478  56.186119  95.364989  -17.446516  -27.919304  126.355675  147.828896  -17.096828  -12.839044  18.364832  15.680967  19.499648  91.357709  -0.716048  63.64534  -39.736579  -35.634995  -116.439785  46.216479  40.182106  -4.755749  26.869321  7.967115  -3.972007  20.172191  5.814459  -3.334508  
0.0  101.685394  0.0  -1.692571  -31.17963  -100.9962  20.255324  -18.022362  12.161191  1.27566  3.42506  24.6898  9.221851  5.679971  4.283711  -2.949804  1.148533  -10.387619  6.249496  12.286775  21.883138  23.874563  4.129812  -0.937552  -7.438445  -2.105487  3.217019  -20.604093  -4.697095  9.357198  -20.604093  -4.697095  9.357198  -2.15323  20.47049  2.26682  66.416306  56.285395  95.430713  -16.76818  -27.811044  125.597135  148.099999  -16.669361  -12.808247  17.842676  15.452228  19.410485  91.957339  -0.398278  63.435956  -41.783258  -34.348187  -115.358158  47.255059  39.458412  -3.777872  26.146468  7.926894  -4.301797  19.635436  5.77415  -3.570342  
0.0  101.685394  0.0  -1.575341  -30.440045  -101.012162  20.667279  -18.190616  12.193735  0.403471  3.599372  24.26356  9.070714  5.633659  4.276841  -4.065387  1.332  -10.145309  6.60511  12.326321  21.486843  23.929163  4.057348  -0.865411  -7.290137  -2.093915  3.211077  -20.196846  -4.689509  9.328622  -20.196846  -4.689509  9.328622  -2.893846  20.364563  2.410445  66.81164  56.736474  95.761341  -16.195072  -27.726665  124.861777  148.583308  -16.137354  -13.078965  17.419509  15.190062  19.64641  92.426902  0.075887  63.132911  -44.039454  -32.981027  -113.861926  48.226732  38.845784  -3.185202  25.46807  7.904283  -4.478822  19.129845  5.753945  -3.692946  
0.0  101.685394  0.0  -1.455135  -29.520571  -101.095588  20.741452  -18.353909  12.195366  -0.114858  3.801626  24.015998  8.720398  5.498684  4.250623  -5.119257  1.607123  -9.885876  6.276343  12.450623  21.074369  24.219891  4.055682  -0.7899  -7.189945  -2.0721  3.197408  -19.9188  -4.649465  9.278799  -19.9188  -4.649465  9.2788  -3.012696  20.559456  2.756738  66.570903  57.166143  95.70217  -15.798075  -27.957297  124.134383  148.954514  -15.483358  -13.664573  17.136301  14.922815  20.049744  84.739105  3.876847  52.954791  -40.812902  -21.312991  -108.520297  49.072397  38.364228  -2.921547  25.000332  7.945755  -4.51437  18.780063  5.786673  -3.714897  
0.0  101.685394  0.0  -1.359999  -28.48213  -101.181441  20.833626  -18.507086  12.16804  -0.574843  3.863318  23.859413  8.234938  5.431697  4.195198  -5.969203  1.93492  -9.652055  6.143712  12.470739  20.892235  24.213193  4.105617  -0.757566  -7.139326  -2.057196  3.187367  -19.777507  -4.619637  9.243972  -19.777508  -4.619637  9.243972  -3.073739  20.551442  2.952333  66.976165  57.806947  96.23355  -15.522623  -28.327707  123.478466  149.147674  -14.890961  -14.300351  17.242373  14.838302  20.62585  85.214257  4.693318  52.531906  -42.481791  -20.104887  -107.473445  50.038105  37.942554  -2.516568  24.753342  8.087841  -4.476608  18.594568  5.896591  -3.688852  
0.0  101.685394  0.0  -1.287349  -27.307592  -101.221789  20.64632  -18.620958  12.04954  -0.719025  3.86818  23.892443  7.601083  5.376632  4.088493  -6.759961  2.323105  -9.548996  5.35734  12.582489  20.721701  24.519121  4.194572  -0.711003  -7.133157  -2.045319  3.15534  -19.756862  -4.598074  9.15317  -19.756862  -4.598074  9.15317  -2.439704  20.775014  3.33646  66.813295  58.498595  96.631961  -15.265873  -28.787605  122.827548  149.202762  -14.381685  -14.919663  17.492978  14.729744  21.278684  85.802835  5.449768  52.122672  -44.076773  -18.848048  -106.569895  51.058609  37.517965  -1.949879  24.586991  8.198213  -4.356482  18.468299  5.985428  -3.600797  
0.0  101.685394  0.0  -1.209221  -26.040065  -101.199462  20.432443  -18.713239  11.852105  -0.988699  3.958677  23.866809  7.035829  5.311018  4.015576  -7.311585  2.769076  -9.525746  4.806566  12.571393  20.777674  24.499882  4.292567  -0.699647  -7.128905  -2.033782  3.105694  -19.740539  -4.582408  9.014866  -19.740537  -4.582408  9.014866  -2.018097  20.777777  3.661983  67.236154  59.450337  97.53118  -15.023094  -29.222294  122.222285  149.03616  -14.020548  -15.378861  17.907875  14.637038  21.990091  86.265952  6.204436  51.579599  -45.619822  -17.577476  -105.672336  51.965736  37.106316  -1.431532  24.487333  8.347552  -4.190872  18.391243  6.104897  -3.481073  
0.0  101.685394  0.0  -1.15481  -25.047198  -101.254752  20.521283  -18.928023  11.80765  -1.033807  4.048231  23.95308  6.383679  5.22844  3.849931  -7.699909  3.186882  -9.56961  4.139557  12.558878  20.955781  24.661077  4.422734  -0.686374  -7.103828  -2.016569  3.047448  -19.66597  -4.556861  8.850305  -19.665969  -4.556861  8.850304  -1.010125  21.042527  4.264738  67.311366  60.445995  98.399333  -14.785226  -29.641601  121.660554  148.652151  -13.833124  -15.654289  17.792778  14.180261  22.275513  87.329449  6.601683  51.64348  -47.185486  -16.274535  -104.738996  52.773842  36.665111  -0.886553  24.492294  8.419732  -3.858692  18.390136  6.172383  -3.234847  
0.0  101.685394  0.0  -0.96589  -23.606009  -101.191283  20.100626  -18.886952  11.616693  -1.453833  4.256592  23.820352  6.068101  5.17496  3.793365  -8.109402  3.82904  -9.687078  3.471667  12.479753  21.12246  24.569714  4.530652  -0.660824  -7.090958  -1.983968  2.966948  -19.621107  -4.494584  8.621444  -19.621108  -4.494584  8.621444  -0.499898  20.928016  4.591634  68.413217  61.681009  100.208297  -14.501373  -30.073899  121.079422  148.109718  -13.761612  -15.88426  18.22167  13.98391  22.996726  87.764434  7.389618  50.963263  -48.841214  -14.737772  -103.815483  53.605472  36.208136  -0.093828  24.332804  8.497355  -3.681863  18.268067  6.238592  -3.102983  
0.0  101.685394  0.0  -0.684782  -22.362718  -101.16063  20.04704  -18.849255  11.546162  -1.774122  4.510254  23.753714  5.613275  5.043599  3.55888  -8.191646  4.541936  -9.776453  3.0154  12.280234  21.358355  24.169099  4.597904  -0.666481  -7.048495  -1.940538  2.878256  -19.493483  -4.409273  8.365438  -19.493482  -4.409273  8.365437  0.478397  21.066384  5.045683  69.310613  62.968491  102.119263  -14.178209  -30.50566  120.444894  147.432624  -13.767258  -16.228573  18.708365  13.72394  23.770079  88.275071  8.188469  50.291425  -50.649046  -12.981138  -102.894545  54.516099  35.735817  0.886166  24.284839  8.55975  -3.356969  18.227341  6.298595  -2.861078  
